<svg width="49" height="46" viewBox="0 0 49 46" fill="none" xmlns="http://www.w3.org/2000/svg">
<path fill-rule="evenodd" clip-rule="evenodd" d="M13.6828 3.64989L15.5732 3.43786V45.9795H9.96203V4.0588L13.6828 3.64989ZM26.1953 23.7621C24.545 23.7621 23.0147 23.7773 21.4844 23.747C21.4094 23.747 21.3494 23.747 21.2893 23.747H21.2593C21.2143 23.747 21.1693 23.7621 21.1243 23.7621H21.1093C21.0643 23.7773 21.0343 23.7924 20.9893 23.7924V23.8076H20.9743C20.9593 23.8076 20.9443 23.8076 20.9293 23.8227C20.8843 23.8379 20.8393 23.8682 20.8092 23.8833V23.8985C20.7642 23.9287 20.7192 23.959 20.6892 24.0196C20.6592 24.0499 20.6442 24.0802 20.6292 24.1105C20.6292 24.1256 20.6292 24.1256 20.6142 24.1408V24.1559C20.5992 24.1862 20.5842 24.2165 20.5842 24.2619C20.5692 24.2922 20.5692 24.3225 20.5692 24.3528C20.5542 24.3982 20.5542 24.4588 20.5392 24.5042V24.5648C20.5392 24.6103 20.5392 24.6557 20.5392 24.7011C20.5542 25.7158 20.5392 26.7305 20.5242 27.7604C20.5242 28.2753 20.5092 28.7902 20.5092 29.3051V30.0472C20.5092 30.3047 20.5092 30.5622 20.5092 30.8045C20.5092 33.4094 19.519 34.8178 17.0585 35.0753H17.0435C16.9685 35.0904 16.8934 35.151 16.8334 35.1813V40.5123C16.9085 40.5123 16.9835 40.5123 17.0435 40.5123H17.3435V40.5274C17.5086 40.5274 17.6886 40.5274 17.8686 40.5274V40.5123H17.9887C18.0637 40.5123 18.1237 40.5123 18.1987 40.5123V40.4971H18.3037C18.3788 40.4971 18.4538 40.4971 18.5138 40.482H18.5288C18.5738 40.482 18.6338 40.4668 18.6788 40.4668H18.7088C18.7388 40.4668 18.7838 40.4517 18.8138 40.4517H18.8588C18.8889 40.4517 18.9189 40.4365 18.9489 40.4365H18.9939C19.0239 40.4214 19.0539 40.4214 19.0839 40.4214V40.4063H19.1139C19.1439 40.4063 19.1739 40.4063 19.2039 40.4063V40.3911H19.2339C19.2639 40.3911 19.2939 40.3911 19.3239 40.376H19.3389C19.399 40.3608 19.444 40.3608 19.504 40.3457H19.534L19.594 40.3305H19.624L19.684 40.3154V40.3002H19.699C19.714 40.3002 19.729 40.3002 19.759 40.3002V40.2851H19.789C19.804 40.2851 19.819 40.2851 19.834 40.27H19.8641L19.9091 40.2548H19.9391C19.9541 40.2397 19.9841 40.2397 19.9991 40.2397L20.0741 40.2245V40.2094C20.1341 40.1942 20.1941 40.1791 20.2691 40.1639C20.2841 40.1639 20.2991 40.1488 20.3141 40.1488H20.3291L20.3742 40.1337H20.3892L20.4342 40.1185V40.1034H20.4492C20.4642 40.1034 20.4792 40.1034 20.4942 40.1034V40.0882H20.5092L20.5392 40.0731H20.5692L20.5992 40.0579H20.6142L20.6592 40.0428H20.6742C20.7492 40.0125 20.8393 39.9822 20.9143 39.9519C20.9443 39.9368 20.9743 39.9216 21.0043 39.9216H21.0193C21.0343 39.9065 21.0643 39.8913 21.0943 39.8762L21.1243 39.861H21.1393L21.1843 39.8459L21.2143 39.8308H21.2293L21.2743 39.8156V39.8005H21.3043V39.7853H21.3194H21.3344V39.7702H21.3494L21.3944 39.755L21.4244 39.7399H21.4394C21.5144 39.6945 21.5894 39.6642 21.6644 39.6339L21.6944 39.6187C21.7094 39.6036 21.7094 39.6036 21.7244 39.5884L21.7694 39.5733L21.8145 39.543H21.8295L21.8445 39.5279H21.8595L21.8895 39.5127V39.4976H21.9045H21.9195V39.4824H21.9345L21.9645 39.4673L21.9945 39.4521L22.0245 39.437C22.0995 39.3916 22.1745 39.3461 22.2345 39.3158C22.2645 39.3007 22.2795 39.2855 22.2945 39.2704L22.3396 39.2401H22.3546L22.3846 39.225L22.3996 39.2098V39.1947H22.4146H22.4296V39.1795H22.4446L22.4896 39.1492L22.5346 39.1189H22.5496C22.5646 39.1038 22.5796 39.0887 22.5946 39.0887V39.0735C22.6096 39.0735 22.6246 39.0584 22.6396 39.0432H22.6546L22.6996 39.0129C22.7446 38.9826 22.7746 38.9524 22.8197 38.9221L22.8347 38.9069V38.8918H22.8497C22.8647 38.8918 22.8797 38.8766 22.8947 38.8615L22.9097 38.8463C22.9397 38.8312 22.9547 38.8161 22.9847 38.8009V38.7858H22.9997V38.7706H23.0147L23.0447 38.7403L23.0747 38.7252L23.0897 38.71C23.1047 38.6949 23.1197 38.6798 23.1347 38.6646L23.1497 38.6495H23.1647L23.1797 38.6343C23.2547 38.5737 23.3298 38.498 23.4048 38.4374L23.4198 38.4223L23.4348 38.4071H23.4498V38.392V38.3769H23.4648H23.4798V38.3617H23.4948V38.3466L23.5098 38.3314H23.5248V38.3163H23.5398V38.3011H23.5548C23.6598 38.1951 23.7649 38.0891 23.8549 37.9831V37.9679H23.8699L23.8849 37.9528L23.8999 37.9377L23.9149 37.9225C23.9449 37.8922 23.9599 37.8619 23.9899 37.8468V37.8316L24.0049 37.8165L24.0199 37.8014L24.0349 37.7862V37.7711C24.0649 37.7559 24.0799 37.7256 24.1099 37.6953L24.1249 37.6802V37.6651L24.1399 37.6499C24.1999 37.5893 24.2449 37.5287 24.29 37.4833V37.4682C24.305 37.453 24.32 37.4379 24.335 37.4076C24.35 37.3924 24.365 37.3773 24.38 37.3622V37.347L24.395 37.3319L24.425 37.2864H24.44V37.2713V37.2561C24.455 37.241 24.47 37.2259 24.485 37.2107L24.515 37.1653V37.1501L24.53 37.135C24.545 37.1198 24.56 37.1047 24.56 37.0896H24.575C24.605 37.029 24.635 36.9835 24.68 36.923L24.71 36.8775V36.8624L24.725 36.8472V36.8321C24.74 36.8169 24.7551 36.8018 24.7551 36.7867H24.7701L24.7851 36.7564V36.7412L24.8001 36.7261L24.8151 36.6958L24.8301 36.6655V36.6504H24.8451L24.8601 36.6049H24.8751L24.8901 36.5746L24.9201 36.514L24.9351 36.4838C24.9651 36.4383 24.9801 36.3929 25.0101 36.3475L25.0251 36.3172L25.0401 36.2869L25.0551 36.2566V36.2414H25.0701L25.0851 36.2263V36.2112L25.1001 36.1809L25.1151 36.1506V36.1354L25.1301 36.1203V36.1051L25.1451 36.0749H25.1601V36.0446V36.0294H25.1751L25.1901 35.9991L25.2051 35.9688L25.2201 35.9234C25.2502 35.8628 25.2802 35.8022 25.3102 35.7265L25.3402 35.6508V35.6357L25.3552 35.6054L25.3852 35.5599L25.4002 35.5145L25.4152 35.4691L25.4302 35.4388V35.4236L25.4452 35.3782H25.4602V35.3328C25.4752 35.3176 25.4752 35.3025 25.4902 35.2873C25.5052 35.2419 25.5202 35.1965 25.5352 35.151V35.1359C25.5502 35.0904 25.5802 35.045 25.5952 34.9844C25.5952 34.9693 25.6102 34.9541 25.6102 34.939V34.9238L25.6252 34.8784L25.6402 34.833V34.8027H25.6552V34.7724V34.7573H25.6702L25.6852 34.7118V34.6967L25.7002 34.6512C25.7002 34.621 25.7152 34.6058 25.7152 34.5907V34.5755L25.7303 34.5301V34.5149C25.7453 34.4846 25.7603 34.4544 25.7603 34.4089V34.3938L25.7903 34.3332V34.3181C25.7903 34.3029 25.7903 34.2726 25.8053 34.2575L25.8203 34.1818L25.8353 34.106L25.8503 34.0303V34.0152H25.8653V33.9546H25.8803C25.8953 33.8334 25.9253 33.7274 25.9403 33.6214V33.6063L25.9553 33.5305V33.5154C25.9703 33.5002 25.9703 33.47 25.9853 33.4397V33.4094L26.0003 33.3336C26.0153 33.2276 26.0303 33.1216 26.0453 33.0156V33.0005L26.0603 32.8944V32.8793H26.0753C26.0753 32.849 26.0753 32.8036 26.0903 32.7733V32.7581C26.0903 32.7127 26.0903 32.6673 26.1053 32.637V32.6218C26.1203 32.5158 26.1203 32.425 26.1353 32.3341C26.1503 32.2735 26.1503 32.2129 26.1503 32.1524V32.1372C26.1653 32.0766 26.1653 32.0161 26.1653 31.9706V31.9555H26.1803C26.1803 31.804 26.1953 31.6374 26.2104 31.486V31.4557C26.2104 31.3497 26.2254 31.2588 26.2254 31.1528C26.2404 30.9862 26.2404 30.8196 26.2404 30.653V30.6076C26.3004 28.3359 26.0603 26.049 26.1953 23.7621ZM47.5897 0C47.5897 1.98397 47.5897 3.87706 47.5897 5.77016C47.5897 5.81559 47.5897 5.86103 47.5897 5.89132V5.92161C47.5747 5.9519 47.5597 5.98219 47.5597 5.99733H47.5447V6.01248C47.5447 6.01248 47.5297 6.02762 47.5297 6.04276C47.5297 6.04276 47.5147 6.04276 47.5147 6.05791C47.4997 6.07305 47.4697 6.0882 47.4397 6.10334C47.3947 6.13363 47.3347 6.14878 47.2596 6.16392H47.2446C47.2296 6.16392 47.2146 6.16392 47.1996 6.16392C45.5793 6.34566 43.974 6.5274 42.3686 6.70913L41.4835 6.8L41.3184 6.81515L40.6733 6.89087L40.5233 6.90602H40.5083L40.3582 6.92116L39.8631 6.98174L39.7131 6.99689H39.6981L39.5481 7.01203L39.383 7.02717L39.053 7.07261L38.9029 7.08775H38.8879L38.7379 7.1029H38.7229L38.5729 7.11804L38.2428 7.16348L38.0778 7.17862L37.9277 7.19377H37.9127L37.4326 7.2392H37.4176L37.2676 7.26949L36.7875 7.31493H36.7725L36.6225 7.33007H36.6075L35.9623 7.40579L35.6023 7.45123L35.3022 7.48152L34.8221 7.52695H34.8071L34.477 7.57239L33.9819 7.61782C32.9767 7.72383 31.9715 7.82985 30.9213 7.95101C30.9513 7.3755 30.9813 6.83029 30.9963 6.28508H31.0113V6.25479C31.0113 6.14878 31.0113 6.04276 31.0263 5.9519V5.92161C31.0263 5.83074 31.0263 5.72472 31.0413 5.61871V5.58842L31.0563 5.34611V5.33096L31.0713 5.0735V5.05835L31.0863 4.83118V4.78575L31.1013 4.55858H31.1164V4.51314L31.1314 4.28597V4.25568L31.1464 4.02851V4.01337C31.1614 3.84677 31.1614 3.68018 31.1764 3.52873V3.51359L31.1914 3.28642L31.2214 3.05924V3.0441L31.2364 2.83207V2.81693L31.2514 2.6049V2.57461L31.2664 2.36258V2.34744L31.3114 1.8931C33.6219 1.65078 35.9023 1.36303 38.1978 1.09042L38.6329 1.02984H38.6479L38.9329 0.999555H38.9479C39.188 0.969266 39.4281 0.938976 39.6831 0.908686L39.9231 0.878397L40.7333 0.787528L41.1984 0.726949L42.1136 0.620936L42.7287 0.545212L43.3438 0.484633C44.7241 0.31804 46.1194 0.166593 47.5297 0H47.5897V0ZM20.4492 16.3715C20.4642 17.4316 20.4792 18.5069 20.4792 19.567C20.4792 20.294 20.4792 21.0209 20.4792 21.7176H26.1353C26.1353 21.0967 26.1503 20.4757 26.1503 19.8699C26.1653 19.3702 26.1653 18.8855 26.1653 18.4009V18.3403H26.1803C26.1803 17.9011 26.1803 17.4771 26.1803 17.053H26.1653V16.4624C26.1653 16.2655 26.1653 16.0837 26.1653 15.8869H26.1503V15.6446C26.1503 15.5537 26.1503 15.4628 26.1503 15.3871H26.1353V15.1599C26.1353 15.0539 26.1353 14.963 26.1203 14.8722V14.7813L26.1053 14.6147C26.1053 14.5844 26.1053 14.5541 26.1053 14.5238V14.4784C26.1053 14.4481 26.0903 14.4027 26.0903 14.3724V14.2815C26.0753 14.2512 26.0753 14.2361 26.0753 14.2058H26.0603V14.1301C26.0603 14.0998 26.0603 14.0695 26.0603 14.0392H26.0453V14.0089C26.0453 13.9635 26.0453 13.9332 26.0303 13.9029V13.8878C26.0303 13.8575 26.0153 13.8272 26.0153 13.7969V13.7817C26.0153 13.7666 26.0003 13.7363 26.0003 13.706V13.6909L25.9853 13.6303V13.6L25.9703 13.5697H25.9553V13.5243V13.494H25.9403V13.4486L25.9253 13.4031V13.3728L25.9103 13.3274V13.3123L25.8953 13.2668V13.2365C25.8803 13.176 25.8503 13.1305 25.8353 13.0699V13.0548L25.8203 13.0094L25.8053 12.9639V12.9488L25.7903 12.9033V12.8882L25.7753 12.8731H25.7603V12.8428V12.8125H25.7453V12.7973V12.767H25.7303V12.7519V12.7216H25.7152V12.6913L25.7002 12.6762V12.6459L25.6852 12.6156L25.6552 12.5702V12.5399H25.6402V12.5247C25.6102 12.449 25.5802 12.3581 25.5352 12.2824V12.2673H25.5202V12.2521L25.5052 12.237V12.2067L25.4902 12.1915V12.1764L25.4752 12.1613H25.4602V12.131H25.4452V12.1007V12.0855H25.4302V12.0704V12.0552H25.4152V12.0401L25.4002 12.0098L25.3852 11.9795V11.9644L25.3702 11.9492H25.3552V11.9341L25.3402 11.9038C25.3252 11.8584 25.2952 11.8281 25.2802 11.7826C25.2652 11.7675 25.2502 11.7523 25.2352 11.7372V11.7221L25.2051 11.6766V11.6615L25.1901 11.6463L25.1751 11.6312H25.1601V11.616L25.1451 11.5858V11.5706H25.1301V11.5555L25.1151 11.5403V11.5252H25.1001V11.51L25.0851 11.4797L25.0701 11.4646H25.0551V11.4494L25.0401 11.4343L25.0251 11.4192V11.404V11.3889H25.0101V11.3737L24.9951 11.3586L24.9801 11.3434V11.3283L24.9351 11.2829C24.9051 11.2374 24.8751 11.192 24.8301 11.1466L24.8151 11.1314V11.1163H24.8001V11.1011C24.7851 11.086 24.7701 11.0557 24.74 11.0405L24.725 11.0254V11.0103L24.71 10.9951L24.695 10.98V10.9648H24.68V10.9497L24.65 10.9345L24.635 10.9194V10.9042L24.62 10.8891L24.605 10.8739L24.59 10.8588V10.8437H24.575H24.56V10.8285H24.545V10.8134C24.515 10.7831 24.485 10.7528 24.455 10.7225L24.44 10.6922L24.425 10.6771L24.38 10.6316L24.365 10.6165H24.35V10.6013L24.335 10.5862L24.32 10.5711L24.305 10.5559L24.29 10.5408C24.26 10.5105 24.2299 10.4953 24.2149 10.465H24.1999V10.4499H24.1849V10.4347H24.1699H24.1549V10.4196H24.1399V10.4045H24.1249V10.3893L24.1099 10.3742L24.0949 10.359L24.0799 10.3439C24.0499 10.3287 24.0349 10.3136 24.0199 10.2833H24.0049L23.9899 10.2682L23.9749 10.253L23.9449 10.2379C23.9149 10.2076 23.8849 10.1773 23.8399 10.147C23.8249 10.1319 23.7949 10.1167 23.7799 10.1016V10.0864C23.7498 10.0713 23.7348 10.0561 23.7048 10.041L23.6898 10.0258L23.6598 10.0107H23.6448V9.99555V9.98041H23.6298L23.6148 9.96526L23.5848 9.95012L23.5698 9.93497H23.5548L23.5398 9.91983H23.5248V9.90468H23.5098V9.88954L23.4948 9.87439L23.4648 9.85925H23.4498V9.8441H23.4348L23.3898 9.81381V9.79867L23.3448 9.76838H23.3298C23.2998 9.75323 23.2697 9.72294 23.2397 9.7078C23.2097 9.69265 23.1947 9.67751 23.1797 9.66237C23.1497 9.64722 23.1197 9.63208 23.0897 9.61693L23.0597 9.60179H23.0447V9.58664L23.0297 9.5715L22.9997 9.55635L22.9697 9.54121L22.9397 9.52606H22.9247V9.51092H22.9097L22.8797 9.49577V9.48063L22.8497 9.46548H22.8347L22.8197 9.45034H22.8047L22.7897 9.43519L22.7596 9.42005H22.7446L22.7296 9.4049H22.7146V9.38976L22.6846 9.37461L22.6546 9.35947H22.6396C22.5796 9.32918 22.5046 9.28375 22.4446 9.25346H22.4296L22.4146 9.23831H22.3996L22.3696 9.22317L22.3396 9.20802H22.3246L22.2945 9.19288H22.2795V9.17773L22.2495 9.16259H22.2345L22.2195 9.14744H22.2045L22.1745 9.1323H22.1445V9.11715H22.1295H22.1145V9.10201H22.0845V9.08686H22.0395H22.0245V9.07172L22.0095 9.05657H21.9945L21.9645 9.04143L21.9195 9.02629H21.9045C21.8595 9.01114 21.8145 8.996 21.7694 8.96571L21.7244 8.95056H21.7094L21.6644 8.93542L21.6194 8.92027H21.6044L21.5744 8.90513H21.5444V8.88998H21.5144H21.4994V8.87484L21.4544 8.85969H21.4244L21.3944 8.84455H21.3794L21.3344 8.8294H21.3194L21.2743 8.81426L21.2143 8.79911C21.1543 8.76882 21.0793 8.75368 21.0193 8.73853H21.0043L20.9443 8.72339H20.9143L20.8693 8.70825H20.8393V8.6931H20.7942H20.7642V8.67796L20.7042 8.66281H20.6742L20.6142 8.64767H20.5992L20.5242 8.63252H20.5092L20.4342 8.61738H20.4192C20.3892 8.60223 20.3592 8.60223 20.3291 8.60223H20.3141C20.2841 8.58709 20.2541 8.58709 20.2091 8.58709H20.1941V8.57194C20.1641 8.57194 20.1341 8.57194 20.0891 8.5568H20.0591C20.0141 8.5568 19.9841 8.5568 19.9541 8.54165H19.9091C19.8791 8.54165 19.834 8.52651 19.804 8.52651H19.774C19.639 8.51136 19.519 8.49622 19.399 8.49622H19.3089V8.48107C19.2339 8.48107 19.1439 8.48107 19.0539 8.48107H18.9789V8.46593C18.6788 8.46593 18.3938 8.46593 18.0937 8.48107C17.9887 8.48107 17.8837 8.48107 17.7786 8.48107V8.49622H17.7036C17.6286 8.49622 17.5536 8.49622 17.4786 8.51136H17.4336C17.4036 8.51136 17.3585 8.51136 17.3135 8.52651C17.1935 8.52651 17.0135 8.66281 16.8934 8.81426C16.8334 8.88998 16.8034 8.96571 16.7884 9.02629V9.22317V9.29889C16.7734 9.61693 16.7734 9.95012 16.7734 10.2833V10.4045C16.7584 11.4494 16.7734 12.5247 16.7734 13.6C16.9985 13.6152 17.2085 13.6303 17.3885 13.6303C17.5386 13.6454 17.6886 13.6606 17.8386 13.6606C19.729 13.7515 20.4342 14.4784 20.4492 16.3715ZM0.0300061 22.49H4.99602C4.99602 20.9907 4.98102 19.567 5.01102 18.1586C5.07103 15.2508 5.8812 14.3421 8.70178 13.9938C8.73178 13.9938 8.74679 13.9786 8.77679 13.9635C8.8218 13.9332 8.85181 13.9029 8.91182 13.8575V9.10201C8.89682 9.10201 8.86681 9.10201 8.85181 9.10201H8.8218C8.76179 9.08686 8.70178 9.08686 8.64176 9.08686H8.53674V9.07172C8.29669 9.05657 8.07165 9.05657 7.8316 9.07172V9.08686H7.74158C7.68157 9.08686 7.60655 9.08686 7.54654 9.10201H7.53154C7.48653 9.10201 7.44152 9.10201 7.41151 9.11715H7.3665C7.3365 9.11715 7.30649 9.11715 7.26148 9.1323H7.23148C7.20147 9.1323 7.15646 9.14744 7.12645 9.14744H7.11145C7.05144 9.16259 6.97642 9.17773 6.91641 9.17773V9.19288H6.90141C6.88641 9.19288 6.8564 9.19288 6.82639 9.20802H6.81139L6.75138 9.22317H6.72137C6.70637 9.22317 6.69137 9.22317 6.66136 9.23831H6.64636L6.60135 9.25346H6.57134L6.51133 9.2686H6.49633C6.42131 9.29889 6.3613 9.31404 6.30129 9.32918H6.28628C6.25628 9.34433 6.21127 9.34433 6.16626 9.35947L6.12125 9.37461H6.10625L6.06124 9.38976V9.4049H6.04623L6.00122 9.42005H5.98622L5.94121 9.43519L5.8962 9.45034H5.8812L5.83619 9.46548H5.82119C5.77618 9.49577 5.73117 9.51092 5.68616 9.52606H5.67116C5.64115 9.54121 5.62615 9.54121 5.59614 9.55635H5.58114L5.53613 9.5715L5.50612 9.58664V9.60179H5.49112L5.44611 9.61693L5.41611 9.63208H5.4011L5.35609 9.64722C5.32609 9.66237 5.29608 9.67751 5.26608 9.67751C5.17606 9.72294 5.08604 9.76838 4.99602 9.81381L4.95101 9.82896L4.921 9.8441L4.891 9.85925H4.876L4.84599 9.87439L4.81598 9.88954V9.90468H4.80098H4.78598V9.91983H4.77097L4.74097 9.93497L4.71096 9.95012H4.69596L4.68096 9.96526H4.66595L4.63595 9.98041C4.56093 10.0258 4.48592 10.0713 4.4109 10.1016V10.1167H4.3959L4.38089 10.1319H4.36589C4.33589 10.147 4.32088 10.1621 4.29088 10.1773H4.27587L4.24587 10.1924V10.2076L4.20086 10.2379H4.18585L4.15585 10.253C4.12584 10.2682 4.09584 10.2833 4.08083 10.3136H4.06583C4.02082 10.3439 3.97581 10.359 3.9308 10.3893V10.4045L3.88579 10.4347H3.87079C3.85579 10.4499 3.84078 10.4499 3.82578 10.465C3.81078 10.4802 3.79577 10.4953 3.78077 10.4953V10.5105H3.76577L3.72076 10.5408L3.67575 10.5711H3.66075L3.64574 10.5862L3.60074 10.6316H3.58573C3.57073 10.6468 3.55573 10.6468 3.54072 10.6619C3.46571 10.7225 3.4057 10.7679 3.33068 10.8134V10.8285C3.30067 10.8437 3.28567 10.8588 3.25566 10.8739L3.24066 10.8891L3.18065 10.9497H3.16565L3.15064 10.9648C3.12064 10.98 3.10563 10.9951 3.09063 11.0254L3.07563 11.0405H3.06062C3.03062 11.0557 3.00061 11.086 2.98561 11.1011V11.1163C2.9406 11.1466 2.89559 11.1768 2.85058 11.2223C2.79057 11.2677 2.73056 11.3283 2.67055 11.3889H2.65554L2.64054 11.404V11.4192H2.62554V11.4343L2.61053 11.4494L2.59553 11.4646H2.58053V11.4797H2.56552L2.55052 11.4949C2.47551 11.5858 2.38549 11.6615 2.31047 11.7372V11.7523L2.29547 11.7675L2.28047 11.7826H2.26546L2.25046 11.7978L2.23546 11.8129V11.8281C2.19045 11.8584 2.16044 11.9038 2.11543 11.9492V11.9644L2.10043 11.9795L2.08543 11.9947L2.07042 12.0098C2.01041 12.0855 1.9504 12.1613 1.89039 12.2218V12.237L1.87538 12.2521L1.81537 12.3127L1.80037 12.343L1.77036 12.3884H1.75536L1.74036 12.4036C1.72535 12.4339 1.71035 12.449 1.69535 12.4793C1.66534 12.4944 1.65034 12.5247 1.63533 12.5399V12.555C1.60533 12.6005 1.56032 12.6459 1.53031 12.6913L1.50031 12.7368V12.7519C1.4853 12.767 1.4703 12.7822 1.4703 12.7973H1.4553L1.42529 12.8428V12.8579L1.39528 12.9033C1.38028 12.9185 1.36528 12.9336 1.36528 12.9488V12.9639H1.35028C1.35028 12.9791 1.33527 12.9942 1.32027 13.0094L1.29026 13.0699L1.27526 13.1002H1.26026C1.26026 13.1154 1.24525 13.1305 1.23025 13.1457V13.1608C1.20025 13.2214 1.15524 13.2668 1.12523 13.3274L1.11023 13.3577V13.3728L1.09522 13.388V13.4031H1.08022C1.06522 13.4334 1.05021 13.4637 1.03521 13.494L1.02021 13.5243L1.00521 13.5546V13.5697L0.990202 13.5849V13.6L0.975199 13.6303H0.960196C0.915187 13.7363 0.870178 13.8272 0.825168 13.918L0.810165 13.9483V13.9635C0.795162 13.9786 0.780159 14.0089 0.780159 14.0392H0.765156V14.0695V14.0846H0.750153L0.73515 14.1149L0.720147 14.1604V14.1755L0.705144 14.2058L0.690141 14.2512V14.2664H0.675138V14.2815V14.2967H0.660135C0.660135 14.327 0.645132 14.3572 0.630129 14.3875C0.630129 14.4027 0.615126 14.4178 0.615126 14.433C0.600123 14.4633 0.600122 14.4935 0.585119 14.5238L0.570116 14.5693V14.5844H0.555113L0.54011 14.6299L0.525107 14.6753V14.6904L0.510104 14.7359L0.495101 14.7813V14.7964L0.480098 14.8419L0.465095 14.9025C0.450092 14.9479 0.435089 14.9782 0.420086 15.0236C0.405083 15.069 0.405083 15.0993 0.39008 15.1448L0.375077 15.2054V15.2205C0.34507 15.3114 0.315064 15.4022 0.300061 15.4931V15.5082L0.285058 15.584L0.270055 15.6597C0.255052 15.69 0.255052 15.7203 0.240049 15.7506C0.225046 15.8869 0.19504 16.008 0.180037 16.1292V16.1443C0.165034 16.1746 0.165034 16.2049 0.165034 16.2503H0.150031C0.150031 16.3412 0.135028 16.4169 0.120024 16.4927V16.5078C0.120024 16.5532 0.105021 16.5987 0.105021 16.6441V16.6593C0.105021 16.7047 0.0900184 16.7501 0.0900184 16.7956V16.8107C0.0750153 16.947 0.0600122 17.0682 0.0600122 17.2045V17.2348H0.0450092C0.0450092 17.3105 0.0450092 17.4013 0.0300061 17.4922V17.5074C0.0300061 17.6285 0.0150031 17.7648 0.0150031 17.9011V17.9163C-0.0300061 19.4307 0.105021 20.9604 0.0300061 22.49ZM8.92682 35.6962C8.92682 35.6357 8.92682 35.5902 8.92682 35.5599V35.5145C8.92682 35.4691 8.91182 35.4236 8.91182 35.3933V35.3782C8.89682 35.3328 8.88181 35.2873 8.86681 35.257V35.2419C8.86681 35.2419 8.86681 35.2267 8.85181 35.2116V35.1965C8.8368 35.1662 8.8068 35.1207 8.77679 35.0904C8.77679 35.0904 8.77679 35.0753 8.76179 35.0753C8.76179 35.0602 8.74679 35.045 8.73178 35.0299C8.70178 35.0147 8.68677 34.9996 8.65677 34.9844C8.64176 34.9693 8.61176 34.9541 8.59676 34.9541H8.58175V34.939C8.56675 34.939 8.53674 34.9238 8.50674 34.9087C8.47673 34.9087 8.46173 34.8936 8.43172 34.8936C8.40172 34.8784 8.37171 34.8784 8.35671 34.8784H8.3417C8.29669 34.8633 8.25168 34.8633 8.20667 34.8633H8.17667C8.14666 34.8481 8.11666 34.8481 8.08665 34.8481C5.8662 34.7573 5.20606 34.0455 5.16105 31.7889C5.13105 30.0775 5.16105 28.3662 5.13105 26.6548C5.13105 26.6094 5.13105 26.5791 5.13105 26.5488V26.4428C5.13105 26.3822 5.13105 26.3065 5.11604 26.2307V26.0642C5.11604 26.0036 5.10104 25.943 5.10104 25.8824V25.8067C5.07104 25.3524 5.02603 24.9132 4.99602 24.4588H0.0450092C0.0450092 26.0944 0 27.6846 0 29.2748V29.3809C0 29.8352 0 30.2744 0.0150031 30.7136V30.8045C0.0150031 30.9862 0.0300061 31.1528 0.0300061 31.3345V31.3497C0.0450092 31.4557 0.0450092 31.5769 0.0450092 31.6829H0.0600122V31.7434C0.0600122 31.8495 0.0600123 31.9403 0.0750153 32.0463V32.0766V32.2129C0.0750153 32.2432 0.0900184 32.2735 0.0900184 32.3189V32.3492C0.0900184 32.3947 0.0900184 32.4552 0.105021 32.5007V32.5764C0.105021 32.6067 0.105021 32.6521 0.120024 32.6824V32.7581C0.120024 32.8036 0.135028 32.849 0.135028 32.8793V32.9247C0.150031 32.9702 0.150031 33.0156 0.150031 33.061H0.165034V33.0762C0.165034 33.1671 0.180037 33.2428 0.19504 33.3336V33.3488L0.210043 33.4397V33.47L0.225046 33.5457V33.576L0.240049 33.6517V33.682L0.255052 33.7577H0.270055V33.788V33.8637H0.285058V33.894L0.300061 33.9697V33.9849C0.315064 34.0303 0.315064 34.0909 0.330067 34.1515C0.34507 34.1818 0.34507 34.212 0.34507 34.2423H0.360073V34.3029H0.375077V34.3181L0.39008 34.3786V34.3938L0.405083 34.4544V34.4695L0.420086 34.5149V34.5452L0.435089 34.5907V34.621L0.450092 34.6664H0.465095V34.6815C0.465095 34.7118 0.465095 34.727 0.480098 34.7573C0.495101 34.833 0.525107 34.9239 0.54011 34.9996L0.555113 35.0602H0.570116C0.570116 35.0753 0.570116 35.0904 0.570116 35.1056H0.585119V35.1207L0.600123 35.1662V35.1813L0.615126 35.2116V35.2419L0.630129 35.2722V35.2873L0.645132 35.3176V35.3479L0.660135 35.3782H0.675138V35.3933L0.690141 35.4388V35.4539C0.690141 35.4691 0.705144 35.4842 0.705144 35.4994C0.73515 35.6054 0.780159 35.6962 0.810165 35.7871C0.825168 35.8174 0.825168 35.8477 0.840172 35.878L0.855175 35.9083H0.870178V35.9234L0.885181 35.9688L0.900184 35.9991V36.0143L0.915187 36.0294V36.0597L0.93019 36.09L0.945193 36.1203V36.1354L0.960196 36.1506H0.975199V36.1809L0.990202 36.2112L1.00521 36.2414V36.2566L1.02021 36.2869C1.05021 36.3626 1.08022 36.4232 1.11023 36.4838L1.12523 36.514L1.14023 36.5443L1.17024 36.5898L1.18524 36.6201C1.18524 36.6352 1.20025 36.6504 1.21525 36.6806V36.6958L1.23025 36.7109V36.7261L1.24525 36.7412V36.7564L1.26026 36.7867H1.27526L1.29026 36.8169L1.30527 36.8472L1.32027 36.8624V36.8927L1.33527 36.9078V36.923L1.35028 36.9381H1.36528V36.9532L1.38028 36.9835C1.39528 37.0138 1.41029 37.0441 1.42529 37.0593V37.0744C1.44029 37.1047 1.4553 37.1198 1.4853 37.1501L1.51531 37.2107C1.53031 37.2259 1.53031 37.241 1.54532 37.2561V37.2713L1.57532 37.3016V37.3167H1.59032V37.3319L1.60533 37.347L1.62033 37.3622V37.3773L1.63533 37.4076L1.65034 37.4227V37.4379L1.68034 37.453V37.4682H1.69535V37.4833L1.71035 37.5136L1.72535 37.5288V37.5439C1.74036 37.559 1.75536 37.5742 1.75536 37.5893H1.77036C1.77036 37.6045 1.78536 37.6196 1.80037 37.6348C1.81537 37.6651 1.83037 37.6802 1.84538 37.7105C1.87538 37.7256 1.89039 37.7559 1.90539 37.7711V37.7862C1.92039 37.8014 1.9354 37.8316 1.9504 37.8468L1.9654 37.8619H1.9804V37.8771H1.99541V37.8922C2.01041 37.9074 2.01041 37.9225 2.02541 37.9377L2.04042 37.9528V37.9679H2.05542H2.07042V37.9831V37.9982H2.08543L2.11543 38.0437L2.13043 38.0588V38.074H2.14544V38.0891L2.16044 38.1043H2.17544C2.17544 38.1194 2.19045 38.1345 2.20545 38.1497L2.22045 38.1648V38.18H2.23546V38.1951L2.25046 38.2103C2.29547 38.2557 2.32547 38.286 2.35548 38.3314H2.37048L2.38549 38.3466L2.40049 38.3617L2.41549 38.3769V38.392L2.4305 38.4071L2.4455 38.4223L2.4605 38.4374H2.47551V38.4526H2.49051V38.4677H2.50551V38.4829H2.52051V38.498L2.53552 38.5132L2.55052 38.5283L2.56552 38.5434H2.58053V38.5586H2.59553V38.5737H2.61053V38.5889L2.62554 38.604L2.64054 38.6192L2.65554 38.6343H2.67055V38.6495H2.68555L2.70055 38.6646L2.71555 38.6798L2.73056 38.71C2.82058 38.7858 2.91059 38.8615 2.98561 38.9372H3.00061L3.01562 38.9524C3.03062 38.9675 3.06062 38.9826 3.07563 39.0129H3.09063L3.10563 39.0281L3.12064 39.0432C3.13564 39.0584 3.15064 39.0584 3.16565 39.0735H3.18065V39.0887H3.19565V39.1038L3.21066 39.1189L3.22566 39.1341H3.24066L3.25566 39.1492L3.27067 39.1644H3.28567L3.33068 39.1947V39.2098L3.34568 39.225C3.37569 39.2401 3.39069 39.2553 3.4207 39.2704C3.46571 39.3007 3.51072 39.331 3.54072 39.3613C3.55573 39.3764 3.58573 39.3916 3.60074 39.3916V39.4067L3.61574 39.4218H3.63074L3.64574 39.437L3.67575 39.4521H3.69075L3.70576 39.4673L3.72076 39.4824H3.73576V39.4976H3.75077V39.5127L3.78077 39.5279H3.79577C3.81078 39.543 3.82578 39.543 3.84078 39.5582L3.87079 39.5733H3.88579V39.5884H3.9008L3.9158 39.6187H3.9308C3.94581 39.6339 3.96081 39.6339 3.97581 39.649H3.99081C4.05083 39.6945 4.12584 39.7247 4.20086 39.7702L4.23086 39.7853V39.8005H4.26087V39.8156L4.29088 39.8308H4.30588L4.32088 39.8459H4.33589L4.35089 39.861H4.38089V39.8762H4.3959H4.4109V39.8913H4.4259L4.45591 39.9216L4.50092 39.9368L4.53092 39.9519L4.56093 39.9671L4.60594 39.9822L4.63595 39.9973C4.71096 40.0428 4.78598 40.0731 4.86099 40.1034C4.891 40.1185 4.921 40.1337 4.95101 40.1488L4.98102 40.1639H4.99602L5.02603 40.1791H5.04103V40.1942H5.07104H5.08604V40.2094H5.11604H5.13105V40.2245L5.16105 40.2397L5.20606 40.2548H5.22107L5.25107 40.27L5.29608 40.2851L5.34109 40.3002V40.3154C5.3711 40.3154 5.4011 40.3305 5.43111 40.3457C5.52113 40.376 5.59614 40.4063 5.68616 40.4365H5.70116L5.73117 40.4517H5.74617L5.79118 40.4668H5.80619L5.83619 40.482H5.85119C5.8662 40.4971 5.8812 40.4971 5.8962 40.4971H5.91121V40.5123C5.92621 40.5123 5.94121 40.5123 5.95622 40.5123H5.98622V40.5274L6.01623 40.5426H6.03123L6.07624 40.5577H6.09124L6.13625 40.5728C6.22627 40.6031 6.30129 40.6183 6.3913 40.6486H6.40631L6.46632 40.6637L6.54134 40.6789H6.55634L6.60135 40.694H6.63135V40.7092H6.67636H6.70637V40.7243C6.72137 40.7243 6.73638 40.7243 6.76638 40.7394H6.79639L6.8414 40.7546H6.8564L6.91641 40.7697H6.93141C6.96142 40.7697 6.99143 40.7849 7.00643 40.7849H7.02143C7.08145 40.8 7.14146 40.8152 7.18647 40.8152H7.20147L7.29149 40.8455H7.30649L7.39651 40.8606H7.42652L7.50153 40.8757H7.53154L7.62156 40.8909H7.65156V40.906H7.74158H7.75658V40.9212C7.80159 40.9212 7.8316 40.9212 7.8616 40.9363H7.87661C7.92162 40.9363 7.96663 40.9363 8.01164 40.9515C8.08665 40.9515 8.14666 40.9666 8.19167 40.9666H8.22168C8.25168 40.9666 8.28169 40.9666 8.3117 40.9666H8.37171C8.41672 40.9666 8.46173 40.9515 8.50674 40.9515C8.53674 40.9363 8.55175 40.9363 8.56675 40.9363H8.58175C8.59675 40.9212 8.61176 40.9212 8.62676 40.906C8.64176 40.906 8.64176 40.906 8.65677 40.8909C8.68677 40.8909 8.70178 40.8757 8.71678 40.8606C8.74679 40.8303 8.77679 40.8 8.8068 40.7697C8.8218 40.7394 8.8368 40.7092 8.85181 40.6789C8.86681 40.6637 8.86681 40.6637 8.86681 40.6486C8.88181 40.6334 8.88181 40.6031 8.88181 40.588C8.89682 40.5728 8.89682 40.5426 8.91182 40.5123V40.4971C8.91182 40.4668 8.92682 40.4365 8.92682 40.3911C8.92682 40.3154 8.92682 40.2397 8.92682 40.1488C8.89682 38.6646 8.89682 37.1804 8.92682 35.6962ZM38.1828 39.2855C36.8175 39.1341 36.0974 37.8014 36.0524 36.4989C35.9923 34.9087 35.9623 33.3336 35.9323 31.7586C35.9323 31.6829 35.9323 31.6223 35.9323 31.5617C35.9023 31.3951 35.8423 31.2891 35.7073 31.2437H35.6923C35.6173 31.2134 35.5273 31.1982 35.4072 31.2134C33.8769 31.2588 32.3316 31.2891 30.8013 31.3042C30.7413 31.3042 30.6813 31.3042 30.6363 31.3194H30.6213C30.5612 31.3345 30.5012 31.3497 30.4562 31.38C30.4412 31.3951 30.4262 31.4254 30.4112 31.4405C30.3662 31.486 30.3512 31.5617 30.3362 31.6374V31.6526C30.3212 31.7132 30.3212 31.7737 30.3212 31.8343C30.3512 32.4401 30.3512 33.0459 30.3512 33.6517V33.9394C30.3512 34.2272 30.3662 34.4998 30.3662 34.7875V34.8178V34.8481C30.3962 35.4085 30.3962 35.9537 30.3962 36.514H30.4112V36.6201C30.4112 36.8321 30.4112 37.0593 30.4262 37.2864V37.3319C30.4262 37.4379 30.4262 37.5288 30.4412 37.6348V37.7711C30.4412 37.8468 30.4412 37.9225 30.4562 37.9982V38.0891C30.4712 38.2254 30.4712 38.3617 30.4862 38.4829V38.5434L30.5012 38.6495H30.5162V38.7403V38.8161H30.5312V38.8918V38.9524H30.5462V39.0432L30.5612 39.1189V39.1795L30.5762 39.2704V39.3158C30.5912 39.3461 30.5912 39.3764 30.5912 39.4218H30.6062V39.4673C30.6062 39.5127 30.6213 39.5581 30.6363 39.6187V39.6339L30.6513 39.6945V39.7399L30.6663 39.7853V39.8308L30.6813 39.8762V39.9065L30.6963 39.9671H30.7113V39.9973L30.7263 40.0579V40.0731C30.7413 40.1336 30.7563 40.2094 30.7713 40.27V40.2851L30.7863 40.3457L30.8013 40.3911H30.8163V40.4063V40.4517H30.8313V40.482L30.8463 40.5123V40.5426L30.8613 40.5728V40.588L30.8763 40.6334V40.6486L30.8913 40.694H30.9063V40.7092V40.7546H30.9213L30.9363 40.8V40.8152C30.9513 40.8455 30.9513 40.8757 30.9663 40.906V40.9212L30.9813 40.9666L30.9963 40.9969H31.0113V41.012L31.0263 41.0575V41.0878H31.0413V41.1029L31.0563 41.1483L31.0713 41.1786V41.1938L31.0863 41.2241V41.2392L31.1013 41.2695H31.1164V41.2847L31.1314 41.3149V41.3301L31.1464 41.3604V41.3755C31.1614 41.3907 31.1614 41.421 31.1764 41.4512C31.2214 41.527 31.2514 41.6027 31.2814 41.6784L31.3114 41.7087L31.3264 41.7541V41.7693H31.3414V41.7844V41.7996H31.3564V41.8147L31.3714 41.8299V41.8602L31.3864 41.8753V41.8904L31.4014 41.9056H31.4164V41.9207V41.951H31.4314L31.4464 41.9813L31.4614 42.0116C31.4914 42.057 31.5064 42.1025 31.5364 42.1328V42.1479C31.5514 42.1631 31.5664 42.1933 31.5814 42.2236L31.6115 42.2842H31.6265L31.6565 42.3296V42.3448L31.6715 42.3751L31.6865 42.3902V42.4054L31.7015 42.4205H31.7165V42.4357H31.7315V42.4508L31.7465 42.4811L31.7615 42.4962V42.5114L31.7765 42.5265L31.7915 42.5417V42.5568L31.8215 42.5871V42.6022H31.8365V42.6174L31.8665 42.6628L31.8965 42.7083H31.9115C31.9265 42.7386 31.9415 42.7537 31.9565 42.784C31.9715 42.7991 31.9865 42.8294 32.0165 42.8446V42.8749H32.0315V42.89H32.0465C32.0615 42.9051 32.0615 42.9203 32.0765 42.9354L32.0915 42.9657L32.1066 42.9809H32.1216V42.996H32.1366V43.0112L32.1666 43.0414V43.0566L32.1816 43.0717L32.1966 43.0869L32.2116 43.102H32.2266V43.1172L32.2566 43.1475L32.2716 43.1777L32.2866 43.1929L32.3016 43.208H32.3166C32.3616 43.2686 32.4066 43.3141 32.4516 43.3746L32.4666 43.3898L32.4816 43.4049L32.4966 43.4201L32.5116 43.4352H32.5266L32.5416 43.4504V43.4655L32.5566 43.4806L32.5716 43.4958L32.5867 43.5109L32.6017 43.5261H32.6167L32.6317 43.5412L32.6467 43.5564V43.5715C32.6917 43.6018 32.7367 43.6472 32.7817 43.6927L32.7967 43.7078L32.8117 43.723H32.8267L32.8417 43.7381L32.8567 43.7533V43.7684C32.8867 43.7835 32.9167 43.8138 32.9617 43.8441V43.8593H32.9767V43.8744C33.0067 43.8896 33.0217 43.9047 33.0367 43.9198H33.0517L33.0667 43.935L33.1118 43.9804H33.1268V43.9956H33.1418L33.1568 44.0107L33.1718 44.0259H33.1868V44.041H33.2018V44.0561H33.2168H33.2318V44.0713L33.2618 44.1016H33.2768L33.2918 44.1167L33.3368 44.147H33.3518V44.1622H33.3668V44.1773L33.4118 44.2076H33.4268L33.4868 44.253L33.5468 44.2985L33.5919 44.3288L33.6219 44.3439H33.6369V44.359H33.6519L33.6819 44.3893L33.7269 44.4196H33.7419L33.7569 44.4348H33.7719V44.4499H33.7869L33.8169 44.4651H33.8319V44.4802L33.8769 44.5105L33.9069 44.5256H33.9219L33.9669 44.5559C34.0269 44.5862 34.072 44.6165 34.132 44.6468L34.162 44.6619V44.6771L34.192 44.6922L34.222 44.7074H34.237L34.252 44.7225H34.267L34.297 44.7377L34.327 44.7528H34.342V44.768H34.357H34.372V44.7831L34.402 44.7982L34.432 44.8134H34.447L34.462 44.8285H34.477L34.507 44.8437C34.5821 44.8891 34.6571 44.9194 34.7321 44.9497H34.7471L34.7771 44.9648L34.8221 44.9951H34.8371L34.8671 45.0103L34.9421 45.0406H34.9571L34.9871 45.0557L35.0322 45.0708H35.0472V45.086L35.0772 45.1011L35.1222 45.1163H35.1372C35.2422 45.1617 35.3472 45.192 35.4672 45.2374L35.5122 45.2526L35.5723 45.2677C35.7073 45.3132 35.8423 45.3586 35.9773 45.404L36.0374 45.4192H36.0524L36.0974 45.4343H36.1124L36.1724 45.4495L36.2324 45.4646H36.2474L36.3074 45.4798V45.4949L36.3824 45.51C36.4274 45.51 36.4724 45.5252 36.5175 45.5403L36.6075 45.5555L36.6825 45.5706L36.7575 45.5858H36.7725V45.6009L36.8475 45.6161H36.8625L36.9225 45.6312H36.9375L37.0126 45.6463C37.1176 45.6615 37.2076 45.6766 37.2976 45.7069L37.4026 45.7221L37.5077 45.7372L37.6127 45.7524L37.7177 45.7675C37.8377 45.7978 37.9577 45.8129 38.0778 45.8281H38.0928L38.2128 45.8432C38.3028 45.8584 38.3928 45.8735 38.4829 45.8735C38.4829 44.0259 38.4979 42.2388 38.4829 40.4668V40.3305C38.4829 40.0882 38.4829 39.8459 38.4829 39.6187C38.4829 39.6036 38.4678 39.5733 38.4678 39.5582C38.4528 39.5279 38.4378 39.4976 38.4228 39.4673H38.4078C38.3778 39.4067 38.3178 39.3613 38.2728 39.331C38.2578 39.3158 38.2578 39.3158 38.2428 39.3158V39.3007C38.2128 39.3007 38.1978 39.3007 38.1828 39.2855ZM35.9473 26.1096C36.0224 22.8535 36.0974 19.6125 36.1874 16.3564C36.2174 15.2508 36.2624 14.1301 36.2924 13.0245V13.0094L36.3074 12.5096V12.4641L36.3374 11.9644V11.9341L36.3524 11.4192V11.3737C36.3524 11.192 36.3674 11.0103 36.3674 10.8285V10.7831C36.3824 10.2379 36.3674 9.67751 36.3674 9.10201C36.1124 9.10201 35.9173 9.10201 35.7373 9.11715C35.6023 9.11715 35.4672 9.11715 35.3322 9.1323H35.3172L35.0021 9.14744H34.9871L34.6871 9.16259L34.372 9.19288C33.3968 9.23831 32.4066 9.29889 31.4314 9.31404C31.4014 9.31404 31.3564 9.32918 31.3264 9.32918H31.2964C31.2664 9.32918 31.2364 9.34433 31.1914 9.34433C31.1014 9.35947 31.0413 9.38976 30.9813 9.43519C30.9813 9.43519 30.9813 9.45034 30.9663 9.45034C30.9513 9.46548 30.9363 9.48063 30.9213 9.51092C30.8913 9.54121 30.8613 9.58664 30.8463 9.64722C30.8313 9.67751 30.8313 9.69266 30.8313 9.72295C30.8163 9.75323 30.8163 9.79867 30.8163 9.8441C30.8013 9.88954 30.8013 9.93497 30.8013 9.98041C30.7863 10.7831 30.7563 11.6009 30.7263 12.4036C30.7113 12.6156 30.7113 12.8276 30.6963 13.0396L30.6363 14.7813V14.7964L30.6213 15.2659V15.2811L30.6062 15.7506H30.5912L30.5762 16.2201V16.2352L30.5612 16.7047V16.735L30.5462 17.1893V17.2196L30.5312 17.674V17.6891L30.5162 18.1434V18.1737L30.4862 18.6281V18.6735L30.4712 19.1127V19.1581L30.4562 19.5973V19.6428L30.4412 20.082V20.1425L30.4262 20.5666V20.612L30.4112 21.0512V21.0967H30.3962L30.3812 21.5359V21.5813L30.3662 22.0356V22.0811L30.3512 22.5203V22.5506L30.3362 23.0049V23.0352L30.3212 23.5047V23.5198L30.3062 23.9893V24.0196H30.2912L30.2762 24.4891V24.5042L30.2612 25.1403C30.2462 25.6704 30.2612 26.2005 30.2612 26.8365L32.6317 26.7608C33.6219 26.7305 34.5971 26.6851 35.5873 26.6548C35.6023 26.6548 35.6173 26.6548 35.6473 26.6548H35.6623C35.6923 26.6397 35.7073 26.6397 35.7373 26.6397C35.8123 26.6094 35.8573 26.5639 35.8873 26.5034C35.9023 26.5034 35.9023 26.4882 35.9023 26.4731C35.9173 26.4579 35.9173 26.4428 35.9323 26.4276V26.4125C35.9473 26.3368 35.9473 26.2156 35.9473 26.1096ZM48.985 33.6971C48.985 32.8339 48.985 31.9706 48.985 31.1074H48.97V30.759C48.97 30.0169 48.97 29.2597 48.955 28.5176V28.3813C48.955 28.0784 48.955 27.7755 48.955 27.4726H48.94V26.8517V26.3973H48.925V25.7461L48.91 25.3524V24.8526C48.895 24.6708 48.895 24.474 48.895 24.2771V24.1105L48.88 23.7621C48.88 23.6864 48.88 23.6107 48.865 23.535V23.4744C48.865 23.3381 48.865 23.2169 48.85 23.0958V23.0201C48.85 22.8989 48.835 22.7777 48.835 22.6566C48.835 22.5809 48.82 22.5051 48.82 22.4294V22.3688C48.82 22.3083 48.805 22.2477 48.805 22.1871V22.1265C48.79 22.0659 48.79 22.0054 48.79 21.9448H48.775V21.8993C48.775 21.8388 48.775 21.7782 48.76 21.7176V21.7025C48.76 21.6419 48.76 21.5813 48.745 21.5207C48.745 21.4753 48.7449 21.4299 48.7299 21.3844V21.3541L48.7149 21.233V21.1875L48.6999 21.0967V21.0512L48.6849 20.9604H48.6699V20.9149V20.8089H48.6549V20.7786L48.6399 20.6726V20.6575C48.6249 20.5817 48.6249 20.506 48.6099 20.4303L48.5949 20.3546V20.3243L48.5799 20.2637H48.5649V20.2183V20.1577H48.5499V20.1123V20.0668H48.5349V20.0214L48.5199 19.976V19.9305L48.5049 19.8851V19.8397L48.4899 19.7791H48.4749V19.7488V19.6882H48.4599V19.6731L48.4449 19.5973L48.4299 19.5065L48.4149 19.4459V19.4307L48.3999 19.3702L48.3849 19.2944H48.3699L48.3549 19.2339V19.2187L48.3399 19.1581C48.3249 19.0673 48.2949 18.9915 48.2649 18.9007C48.2498 18.825 48.2198 18.7492 48.2048 18.6735L48.1898 18.6281C48.1598 18.5372 48.1298 18.4615 48.0998 18.3706C48.0698 18.3252 48.0548 18.2797 48.0398 18.2343C48.0248 18.204 48.0248 18.1737 48.0098 18.1434C47.9948 18.098 47.9798 18.0526 47.9498 18.0223V18.0071C47.8598 17.78 47.7547 17.5679 47.6347 17.3559C47.5747 17.2499 47.5147 17.159 47.4547 17.053L47.4247 17.0076V16.9924C47.3797 16.9319 47.3347 16.8561 47.2897 16.7956V16.7804C47.2596 16.7501 47.2296 16.7047 47.1996 16.6593C47.1846 16.6441 47.1546 16.6138 47.1396 16.5987C47.0946 16.5381 47.0496 16.4775 47.0046 16.4169L46.9896 16.4018V16.3866C46.9596 16.3564 46.9296 16.3261 46.8996 16.2958V16.2806C46.7495 16.1292 46.5995 15.9777 46.4345 15.8263L46.4195 15.8111C46.3445 15.7506 46.2844 15.69 46.2094 15.6294C46.1794 15.6143 46.1644 15.5991 46.1494 15.584H46.1344V15.5688L46.1194 15.5537C46.0444 15.4931 45.9544 15.4325 45.8794 15.3871C45.8344 15.3568 45.7893 15.3265 45.7293 15.2962L45.6843 15.2508C45.6543 15.2356 45.6243 15.2205 45.5943 15.2054C45.5343 15.1751 45.4893 15.1448 45.4293 15.1145L45.3993 15.0993L45.3693 15.0842H45.3543V15.069C45.2942 15.0388 45.2192 15.0085 45.1592 14.9782H45.1442V14.963L45.1142 14.9479C45.0692 14.9327 45.0392 14.9176 44.9942 14.9025L44.9642 14.8873H44.9492C44.9042 14.857 44.8442 14.8419 44.7841 14.8116C44.7391 14.7964 44.6941 14.7813 44.6341 14.7662V14.751L44.5891 14.7359L44.5441 14.7207H44.5291C44.4991 14.7056 44.4691 14.7056 44.4391 14.6904C44.4091 14.6753 44.3941 14.6753 44.3791 14.6753C44.334 14.6601 44.304 14.645 44.259 14.6299H44.244C44.229 14.6299 44.214 14.6147 44.199 14.6147C44.169 14.6147 44.154 14.5996 44.139 14.5996H44.124C44.034 14.5693 43.944 14.5541 43.854 14.5238H43.8389C43.8239 14.5238 43.7939 14.5087 43.7639 14.5087H43.7489C43.7339 14.4935 43.7039 14.4935 43.6889 14.4935H43.6739C43.5689 14.4633 43.4789 14.4481 43.3889 14.433H43.3739C43.3288 14.433 43.2988 14.4178 43.2688 14.4178H43.2388C43.2088 14.4178 43.1638 14.4027 43.1188 14.4027C43.0588 14.4027 42.9988 14.3875 42.9388 14.3875H42.9088C42.8187 14.3724 42.7437 14.3724 42.6537 14.3724H42.6387C42.5337 14.3572 42.4137 14.3572 42.2936 14.3572V14.3724H42.1886C42.0986 14.3724 42.0236 14.3724 41.9336 14.3875H41.8885C41.7985 14.3875 41.6935 14.4027 41.5885 14.4178H41.5735C41.5435 14.433 41.4985 14.433 41.4685 14.433H41.4535C41.3784 14.4481 41.3184 14.4633 41.2584 14.4784H41.2434C41.2134 14.4784 41.1984 14.4784 41.1684 14.4935H41.1534C41.1234 14.4935 41.1084 14.5087 41.0784 14.5087C41.0484 14.5087 41.0334 14.5238 41.0034 14.5238H40.9884C40.8983 14.5541 40.8083 14.5693 40.7183 14.5996C40.6883 14.5996 40.6733 14.6147 40.6583 14.6147H40.6433L40.5983 14.6299H40.5833C40.5533 14.645 40.5083 14.6601 40.4783 14.6753C40.4333 14.6753 40.4032 14.6904 40.3732 14.7056H40.3582L40.3132 14.7207L40.2682 14.7359C40.1932 14.7662 40.1332 14.7813 40.0732 14.8116C40.0132 14.8419 39.9532 14.857 39.8931 14.8873C39.8631 14.8873 39.8331 14.9025 39.8031 14.9176C39.7581 14.9327 39.7281 14.9479 39.6831 14.9782C39.6081 15.0085 39.5331 15.0388 39.4581 15.0842L39.413 15.0993L39.383 15.1145L39.353 15.1296H39.338L39.308 15.1448L39.278 15.1599V15.1751L39.203 15.2054C39.143 15.2356 39.083 15.2659 39.008 15.3114L38.978 15.3265C38.9329 15.3568 38.8879 15.3719 38.8579 15.4022C38.7979 15.4325 38.7379 15.4628 38.6779 15.5082C38.6479 15.5234 38.6179 15.5385 38.5879 15.5537C38.5429 15.584 38.4979 15.6143 38.4528 15.6446C38.4078 15.6748 38.3778 15.69 38.3478 15.7203H38.3328L38.2878 15.7506L38.2428 15.796H38.2278L38.1828 15.8263C38.1228 15.8717 38.0628 15.902 38.0028 15.9474C37.9427 15.9929 37.8827 16.0383 37.8077 16.0989L37.7477 16.1443C37.7177 16.1746 37.6877 16.1898 37.6577 16.2049C37.5977 16.2503 37.5527 16.3261 37.5077 16.4018C37.4927 16.4321 37.4927 16.4472 37.4776 16.4775V16.4927C37.4626 16.5229 37.4626 16.5532 37.4626 16.5684V16.9167V17.2499C37.4476 18.5826 37.4476 19.9154 37.4476 21.2481C37.5077 21.233 37.5827 21.2178 37.6427 21.2027L37.7177 21.1875C37.7777 21.1724 37.8377 21.1572 37.8827 21.1572C38.4529 21.0209 38.993 20.8846 39.5331 20.8392C40.4183 20.7635 41.2734 20.9452 41.7835 21.8085C42.3086 22.6566 42.6387 23.5956 42.6387 24.5951C42.6687 28.4116 42.6687 32.2281 42.6387 36.0294C42.6387 37.7105 41.7535 38.8312 40.2082 39.3764H40.1932C40.1782 39.3916 40.1632 39.3916 40.1632 39.3916H40.1482C40.0582 39.4521 39.9532 39.5582 39.9081 39.6642C39.9081 39.6793 39.8931 39.7096 39.8931 39.7247C39.8931 41.2544 39.9081 42.7991 39.9081 44.3288V44.359L39.9231 45.3586C39.9231 45.5706 39.9832 45.7069 40.1182 45.7675C40.1632 45.7826 40.1932 45.7978 40.2382 45.8129H40.2532C40.2832 45.8129 40.3282 45.8129 40.3882 45.8129C40.5083 45.8129 40.6283 45.8129 40.7633 45.8129H40.8833C40.9434 45.7978 41.0184 45.7978 41.0934 45.7978V45.7826H41.1234C41.1684 45.7826 41.2134 45.7826 41.2584 45.7826V45.7675H41.2884C41.3184 45.7675 41.3634 45.7675 41.3934 45.7524H41.4385C41.4685 45.7524 41.5135 45.7372 41.5585 45.7372C41.6335 45.7221 41.6935 45.7069 41.7685 45.7069C41.7985 45.6918 41.8285 45.6918 41.8435 45.6918V45.6766H41.8735C41.8885 45.6766 41.9186 45.6766 41.9336 45.6615H41.9486C41.9786 45.6615 42.0086 45.6615 42.0236 45.6463H42.0386L42.1136 45.6312C42.1886 45.6161 42.2636 45.6009 42.3236 45.5858V45.5706H42.3386L42.3987 45.5555L42.4437 45.5403H42.4737L42.5187 45.5252H42.5337C42.5487 45.51 42.5787 45.51 42.5937 45.51L42.6387 45.4949V45.4798H42.6537C42.6987 45.4798 42.7287 45.4646 42.7737 45.4495C42.8037 45.4343 42.8337 45.4343 42.8788 45.4192L42.9238 45.404L42.9838 45.3737C43.0138 45.3737 43.0438 45.3586 43.0738 45.3435L43.1188 45.3283H43.1338L43.1788 45.3132L43.2088 45.298H43.2238L43.2688 45.2829V45.2677C43.3589 45.2374 43.4339 45.2071 43.5239 45.1617L43.5689 45.1466L43.5989 45.1314H43.6139C43.6289 45.1163 43.6589 45.1011 43.6889 45.1011L43.7189 45.086V45.0708H43.7339L43.7489 45.0557H43.7639L43.7939 45.0406H43.8089C43.929 44.98 44.049 44.9194 44.184 44.8437L44.214 44.8285H44.229L44.244 44.8134H44.259L44.289 44.7982C44.334 44.768 44.3641 44.7528 44.4091 44.7225L44.4391 44.7074C44.4991 44.6619 44.5591 44.6316 44.6191 44.6014C44.6341 44.5862 44.6491 44.5711 44.6791 44.5711V44.5559L44.7091 44.5408L44.7541 44.5105H44.7691L44.8141 44.4802V44.4651L44.8742 44.4348L44.9192 44.4045H44.9342C44.9942 44.359 45.0692 44.3136 45.1292 44.253C45.1592 44.2379 45.1742 44.2227 45.2042 44.2076L45.2492 44.1622H45.2792V44.147L45.3242 44.1167L45.3393 44.1016H45.3543L45.3993 44.0561H45.4143V44.041C45.4443 44.0259 45.4593 44.0107 45.4893 43.9956C45.5493 43.9501 45.6093 43.9047 45.6543 43.8441H45.6693L45.6843 43.829C45.7143 43.8138 45.7443 43.7835 45.7593 43.7533H45.7743L45.7893 43.7381L45.8044 43.723C45.8344 43.6927 45.8794 43.6624 45.9094 43.6321L45.9244 43.6169L45.9394 43.6018H45.9544C46.0144 43.5412 46.0744 43.4806 46.1344 43.4201L46.1494 43.4049L46.1644 43.3898H46.1794L46.1944 43.3746L46.2094 43.3595V43.3443L46.2244 43.3292L46.2394 43.3141L46.2544 43.2989H46.2694L46.2844 43.2838L46.2994 43.2686L46.3145 43.2535V43.2383L46.3295 43.2232L46.3445 43.208L46.3595 43.1929H46.3745L46.3895 43.1777L46.4045 43.1475C46.4645 43.0869 46.5245 43.0263 46.5845 42.9657L46.5995 42.9506V42.9354C46.6295 42.9051 46.6595 42.8749 46.6895 42.8446V42.8294L46.7045 42.8143L46.7195 42.7991C46.7495 42.7688 46.7645 42.7385 46.7946 42.7234V42.7083L46.8096 42.6931C46.8546 42.6325 46.8996 42.572 46.9446 42.5114C46.9746 42.4962 46.9896 42.4659 47.0046 42.4508V42.4357L47.0196 42.4205L47.0496 42.3751H47.0646V42.3599L47.1096 42.2994L47.1546 42.2388V42.2236L47.1996 42.1782L47.2446 42.1025C47.2747 42.0722 47.2897 42.0267 47.3197 41.9965C47.3347 41.9813 47.3497 41.9662 47.3497 41.951L47.3647 41.9207V41.9056H47.3797L47.4097 41.8602C47.4247 41.845 47.4247 41.8147 47.4397 41.7996L47.4547 41.7693H47.4697L47.4997 41.7239V41.7087L47.5297 41.6633L47.5447 41.633V41.6178C47.6047 41.5421 47.6497 41.4664 47.6947 41.3755L47.7097 41.3452L47.7247 41.3149V41.2998L47.7397 41.2695L47.7547 41.2392V41.2241H47.7698V41.2089V41.1938H47.7848L47.7998 41.1635L47.8148 41.1332V41.1181L47.8298 41.1029V41.0878C47.8598 41.0423 47.8748 40.9969 47.9048 40.9515C47.9198 40.906 47.9348 40.8606 47.9498 40.8303V40.8152L47.9648 40.7849L47.9948 40.7394L48.0098 40.7092V40.694L48.0248 40.6637V40.6486L48.0398 40.6183V40.6031C48.0548 40.588 48.0698 40.5577 48.0698 40.5274V40.5123H48.0848C48.0848 40.4971 48.0998 40.4668 48.1148 40.4365C48.1148 40.4214 48.1148 40.4063 48.1298 40.3911C48.1448 40.3305 48.1748 40.2548 48.2048 40.1791L48.2198 40.1337V40.1034L48.2348 40.0731V40.0579L48.2498 40.0276V39.9973H48.2649V39.9671V39.9519H48.2799L48.2949 39.9065V39.8913L48.3099 39.861V39.8459L48.3249 39.8005V39.7853L48.3399 39.7399C48.3699 39.649 48.3849 39.5733 48.4149 39.4976V39.4824L48.4299 39.4218L48.4449 39.3613V39.3461L48.4599 39.3007V39.2704H48.4749V39.225V39.1947H48.4899L48.5049 39.1644V39.1341L48.5199 39.0887V39.0584L48.5349 39.0129V38.9826L48.5499 38.9372V38.9221L48.5649 38.8615V38.8463H48.5799L48.5949 38.7706C48.5949 38.7252 48.6099 38.6646 48.6249 38.604L48.6399 38.5283V38.5132L48.6549 38.4374V38.4071H48.6699V38.3314V38.3163H48.6849L48.6999 38.2406V38.2254L48.7149 38.1345V38.1194L48.7299 38.0285C48.7449 37.9528 48.76 37.8771 48.76 37.8165V37.8014L48.775 37.6953V37.6651H48.79L48.805 37.559V37.5288L48.82 37.4227V37.4076C48.82 37.3622 48.835 37.3167 48.835 37.2864V37.2561C48.85 37.1653 48.865 37.0593 48.865 36.9532V36.9381C48.88 36.8927 48.88 36.8321 48.895 36.7715V36.7412C48.895 36.6806 48.895 36.6352 48.91 36.5746V36.5292C48.91 36.4686 48.925 36.408 48.925 36.3475V36.3323C48.925 36.2414 48.94 36.1506 48.94 36.0749V36.0294C48.955 35.9385 48.955 35.8325 48.955 35.7417V35.6811C48.97 35.5448 48.97 35.4085 48.97 35.2722V35.2116H48.985C48.985 34.7118 49 34.1969 48.985 33.6971Z" fill="url(#paint0_linear_481_117)"/>
<defs>
<linearGradient id="paint0_linear_481_117" x1="3.03062" y1="22.9898" x2="49.3451" y2="22.9898" gradientUnits="userSpaceOnUse">
<stop stop-color="#343A79"/>
<stop offset="0.0313725" stop-color="#343A79"/>
<stop offset="0.858824" stop-color="#CB2668"/>
<stop offset="1" stop-color="#CB2668"/>
</linearGradient>
</defs>
</svg>
