<svg width="17" height="16" viewBox="0 0 17 16" fill="none" xmlns="http://www.w3.org/2000/svg">
<path d="M16.9338 12.6464C16.9682 12.8937 16.8878 13.1086 16.6929 13.2913L14.4044 15.4193C14.3011 15.5268 14.1663 15.6182 14 15.6934C13.8337 15.7686 13.6702 15.817 13.5097 15.8385C13.4982 15.8385 13.4637 15.8412 13.4064 15.8466C13.3491 15.852 13.2745 15.8547 13.1827 15.8547C12.9647 15.8547 12.612 15.8198 12.1244 15.7499C11.6369 15.68 11.0404 15.508 10.335 15.234C9.62942 14.9599 8.82933 14.5488 7.9346 14.0007C7.03987 13.4526 6.08773 12.7002 5.07826 11.7436C4.27528 11.002 3.60995 10.2927 3.08227 9.61558C2.55459 8.93844 2.13016 8.31238 1.80896 7.73737C1.48774 7.16236 1.24684 6.64109 1.08625 6.17356C0.92565 5.70603 0.816673 5.30299 0.759317 4.96443C0.701961 4.62587 0.679019 4.35986 0.69049 4.1664C0.701961 3.97294 0.707697 3.86546 0.707697 3.84397C0.730639 3.6935 0.78226 3.54034 0.862558 3.3845C0.942857 3.22866 1.04036 3.10237 1.15507 3.00564L3.44359 0.861447C3.60418 0.710977 3.78772 0.635742 3.99421 0.635742C4.14333 0.635742 4.27525 0.676047 4.38996 0.756655C4.50468 0.837264 4.60218 0.936681 4.68248 1.05491L6.52361 4.32762C6.62685 4.49959 6.65553 4.68767 6.60965 4.89188C6.56376 5.09609 6.46626 5.26806 6.31713 5.40778L5.47399 6.19774C5.45105 6.21924 5.43098 6.25417 5.41377 6.30253C5.39656 6.3509 5.38796 6.3912 5.38796 6.42345C5.43385 6.64915 5.53709 6.9071 5.69768 7.19729C5.83534 7.45524 6.04756 7.76961 6.33434 8.14041C6.62112 8.51121 7.02835 8.93841 7.55602 9.42206C8.07223 9.91652 8.53108 10.3007 8.93257 10.5748C9.33398 10.8488 9.66963 11.0504 9.9392 11.1794C10.2088 11.3083 10.4153 11.3863 10.5586 11.413L10.7736 11.4534C10.7966 11.4534 10.834 11.4453 10.8855 11.4292C10.9371 11.413 10.9744 11.3943 10.9974 11.3727L11.9782 10.4377C12.1848 10.2657 12.4255 10.1798 12.7009 10.1798C12.8959 10.1798 13.0507 10.212 13.1654 10.2765H13.1826L16.5035 12.1144C16.7445 12.2542 16.8878 12.4315 16.9338 12.6464Z" fill="#06AE5D"/>
</svg>
