<svg width="41" height="41" viewBox="0 0 41 41" fill="none" xmlns="http://www.w3.org/2000/svg">
<g clip-path="url(#clip0_203_78)">
<path d="M17.7284 34.3545C17.7284 35.8838 18.9707 37.1261 20.5 37.1261C22.0293 37.1261 23.2716 35.8838 23.2716 34.3545C23.2716 32.8252 22.0293 31.5829 20.5 31.5829C18.9707 31.5829 17.7284 32.8252 17.7284 34.3545Z" fill="#F3F0EB"/>
<path d="M7.80227 10.4966C5.28897 11.6528 3.03807 13.1165 1.22177 14.8016C0.721573 15.2772 0.409973 15.9455 0.409973 16.6917C0.409973 18.1267 1.56207 19.2911 2.98477 19.2911C3.81707 19.2911 4.51407 18.7786 5.02657 18.2743C6.81417 16.8557 8.76577 15.6995 10.8322 14.8262L7.80227 10.4966Z" fill="#F3F0EB"/>
<path d="M39.8643 14.8877C34.7475 10.3531 27.9005 7.68401 20.5 7.68401C19.4545 7.68401 18.409 7.74551 17.3717 7.85621L20.8936 12.8828C26.4327 12.9689 31.6766 14.8549 35.9734 18.2661C36.5761 18.8401 37.1829 19.287 38.0152 19.287C39.4379 19.287 40.59 18.1226 40.59 16.6876C40.59 15.9906 40.3153 15.3551 39.8643 14.8877Z" fill="#F3F0EB"/>
<path d="M22.9231 15.7856L27.5356 22.3743C28.6344 22.8745 29.6758 23.4854 30.6352 24.1988C31.1887 24.6457 31.7791 25.0065 32.5171 25.0065C33.9398 25.0065 35.0919 23.8421 35.0919 22.4071C35.0919 21.6609 34.7803 20.9926 34.2801 20.517C31.0821 17.9668 27.1912 16.2571 22.9231 15.7856Z" fill="#F3F0EB"/>
<path d="M12.4517 17.1386C10.291 17.9586 8.33936 19.0861 6.80596 20.435C6.25656 20.9106 5.90396 21.6158 5.90396 22.4071C5.90396 23.8421 7.05606 25.0065 8.47876 25.0065C9.26186 25.0065 10.2213 24.3423 10.4591 24.125C11.9884 23.0098 13.7104 22.1447 15.5595 21.583L12.4517 17.1386Z" fill="#F3F0EB"/>
<path d="M20.6312 28.8195L17.2569 24.002C15.3217 24.4448 13.5546 25.2484 12.5542 26.2365C12.1565 26.6957 11.9105 27.2902 11.9105 27.9503C11.9105 29.3853 13.0626 30.5497 14.4853 30.5497C15.1454 30.5497 15.7276 30.1889 16.1991 29.8855C17.4824 29.2049 18.9461 28.8195 20.4918 28.8195C20.5451 28.8154 20.5861 28.8154 20.6312 28.8195Z" fill="#F3F0EB"/>
<path d="M12.8207 4.9821C11.9966 3.8054 10.3771 3.5225 9.20446 4.3425C8.03186 5.1625 7.74486 6.7861 8.56486 7.9587L26.445 33.4976C27.2691 34.6743 28.8886 34.9572 30.0653 34.1372C31.242 33.3131 31.5249 31.6936 30.7049 30.521L12.8207 4.9821Z" fill="#F3F0EB"/>
</g>
<defs>
<clipPath id="clip0_203_78">
<rect width="41" height="41" fill="white" transform="translate(-3.05176e-05 0.000610352)"/>
</clipPath>
</defs>
</svg>
